<svg width="315" height="475" viewBox="0 0 315 475" fill="none" xmlns="http://www.w3.org/2000/svg">
<path d="M2.21484 365.138L1.02832 364.03C1.39746 363.608 1.89844 363.16 2.53125 362.686C3.2168 362.211 3.82324 361.947 4.35059 361.895C4.8252 361.789 5.66895 361.71 6.88184 361.657C8.14746 361.552 9.46582 361.42 10.8369 361.262C12.208 361.104 13.5 360.998 14.7129 360.945C15.9785 360.893 16.875 360.866 17.4023 360.866C18.2461 360.866 19.5117 360.84 21.1992 360.787C22.9395 360.734 24.917 360.708 27.1318 360.708C29.3467 360.655 31.667 360.629 34.0928 360.629C36.5186 360.576 38.8389 360.55 41.0537 360.55C43.2686 360.497 45.2461 360.471 46.9863 360.471C48.7266 360.418 50.0186 360.392 50.8623 360.392V363.002C50.335 363.002 49.4912 363.028 48.3311 363.081C47.1709 363.134 45.8789 363.213 44.4551 363.318C43.0312 363.371 41.5283 363.45 39.9463 363.556C38.417 363.608 36.9404 363.661 35.5166 363.714C34.0928 363.767 32.8271 363.846 31.7197 363.951C30.6123 364.004 29.7949 364.03 29.2676 364.03C28.9512 364.03 28.4238 364.109 27.6855 364.268C27 364.373 26.2354 364.479 25.3916 364.584C24.6006 364.637 23.8359 364.742 23.0977 364.9C22.4121 365.059 21.9375 365.138 21.6738 365.138C21.6738 365.401 21.6475 365.929 21.5947 366.72C21.5947 367.511 21.5684 368.328 21.5156 369.172C21.5156 370.016 21.5156 370.833 21.5156 371.624V373.206C21.5156 376.37 21.6475 379.481 21.9111 382.54C22.1748 385.546 22.4385 388.578 22.7021 391.637C23.0186 394.643 23.3086 397.675 23.5723 400.733C23.8359 403.792 23.9678 406.877 23.9678 409.988C23.9678 410.252 23.9678 410.595 23.9678 411.017C23.9678 411.438 23.9414 411.86 23.8887 412.282C23.8887 412.651 23.8887 412.994 23.8887 413.311L23.8096 413.785L21.6738 416C20.9883 415.684 20.4873 415.209 20.1709 414.576C19.9072 413.943 19.7227 413.258 19.6172 412.52C19.5645 411.781 19.5381 411.069 19.5381 410.384C19.5381 409.646 19.5381 409.013 19.5381 408.485C19.4854 407.589 19.3799 406.429 19.2217 405.005C19.1162 403.528 18.9844 401.814 18.8262 399.863C18.7207 397.912 18.5625 395.829 18.3516 393.614C18.1934 391.399 18.0088 389.132 17.7979 386.812C17.6396 384.491 17.4814 382.224 17.3232 380.009C17.2178 377.741 17.0859 375.658 16.9277 373.76C16.7695 371.809 16.6113 370.095 16.4531 368.618C16.3477 367.142 16.2686 365.981 16.2158 365.138H2.21484ZM55.1338 372.731C54.6592 372.046 54.3428 371.492 54.1846 371.07C54.0791 370.648 54.0264 370.121 54.0264 369.488C54.0264 368.381 54.3428 367.379 54.9756 366.482C55.6084 365.586 56.4258 364.821 57.4277 364.188C58.4297 363.503 59.5371 362.949 60.75 362.527C62.0156 362.105 63.2812 361.763 64.5469 361.499C65.8125 361.183 67.0254 360.972 68.1855 360.866C69.3457 360.761 70.374 360.708 71.2705 360.708C74.751 360.708 77.2822 361.446 78.8643 362.923C80.4463 364.399 81.2373 366.904 81.2373 370.438C81.2373 375.131 80.1035 378.954 77.8359 381.907C75.5684 384.808 72.3252 387.154 68.1064 388.947C68.1064 389 68.1064 389.079 68.1064 389.185C68.1064 389.29 68.1064 389.369 68.1064 389.422C68.1064 391.109 68.7129 392.665 69.9258 394.089C71.1387 395.46 72.7207 396.699 74.6719 397.807C76.623 398.914 78.7852 399.916 81.1582 400.812C83.584 401.656 85.957 402.368 88.2773 402.948C90.5977 403.476 92.7598 403.845 94.7637 404.056C96.7676 404.214 98.376 404.24 99.5889 404.135L100.538 405.163C100.274 405.796 99.7998 406.297 99.1143 406.666C98.4814 406.982 97.7695 407.193 96.9785 407.299C96.1875 407.404 95.3965 407.457 94.6055 407.457C93.8145 407.404 93.1553 407.378 92.6279 407.378C89.8857 407.378 87.1436 407.009 84.4014 406.271C81.6592 405.532 79.0225 404.504 76.4912 403.186C73.96 401.814 71.5869 400.206 69.3721 398.36C67.21 396.515 65.3643 394.458 63.835 392.19H61.6992V415.604C60.6973 415.604 59.9854 415.42 59.5635 415.051C59.1416 414.629 58.8516 414.128 58.6934 413.548C58.5352 412.915 58.4561 412.256 58.4561 411.57C58.4561 410.832 58.4561 410.146 58.4561 409.514C58.3506 408.564 58.1924 407.141 57.9814 405.242C57.8232 403.291 57.6387 401.129 57.4277 398.756C57.2168 396.33 56.9795 393.799 56.7158 391.162C56.5049 388.473 56.2939 385.915 56.083 383.489C55.8721 381.063 55.6875 378.901 55.5293 377.003C55.3711 375.052 55.2393 373.628 55.1338 372.731ZM60.5918 384.597C61.0664 385.546 61.5146 386.152 61.9365 386.416C62.3584 386.68 62.9385 386.812 63.6768 386.812C65.4697 386.812 67.2363 386.39 68.9766 385.546C70.7168 384.649 72.2461 383.516 73.5645 382.145C74.8828 380.773 75.9375 379.218 76.7285 377.478C77.5195 375.685 77.915 373.918 77.915 372.178C77.915 371.281 77.8623 370.358 77.7568 369.409C77.6514 368.407 77.3877 367.511 76.9658 366.72C76.5967 365.876 76.043 365.217 75.3047 364.742C74.6191 364.215 73.749 363.951 72.6943 363.951C71.2705 363.951 69.7676 364.03 68.1855 364.188C66.6562 364.347 65.2324 364.716 63.9141 365.296C62.6484 365.823 61.5674 366.562 60.6709 367.511C59.8271 368.46 59.4053 369.726 59.4053 371.308C59.4053 372.521 59.4316 373.654 59.4844 374.709C59.5371 375.711 59.5898 376.739 59.6426 377.794C59.748 378.796 59.8799 379.851 60.0381 380.958C60.1963 382.065 60.3809 383.278 60.5918 384.597ZM103.86 391.162C103.86 389.58 103.86 388.183 103.86 386.97C103.913 385.757 103.966 384.57 104.019 383.41C104.124 382.197 104.256 380.932 104.414 379.613C104.572 378.295 104.757 376.739 104.968 374.946C107.13 374.155 109.081 373.522 110.821 373.048C112.614 372.573 114.354 372.204 116.042 371.94C117.782 371.677 119.522 371.519 121.263 371.466C123.056 371.36 124.98 371.308 127.037 371.308C127.406 371.308 127.907 371.334 128.54 371.387C129.173 371.387 129.806 371.413 130.438 371.466C131.071 371.519 131.651 371.545 132.179 371.545C132.706 371.545 133.049 371.571 133.207 371.624L135.343 372.731L134.156 373.76C133.787 373.707 133.075 373.681 132.021 373.681C131.019 373.681 129.938 373.681 128.777 373.681C127.617 373.681 126.536 373.681 125.534 373.681C124.532 373.681 123.82 373.707 123.398 373.76C122.66 373.865 121.764 374.023 120.709 374.234C119.654 374.393 118.547 374.577 117.387 374.788C116.279 374.999 115.172 375.236 114.064 375.5C113.01 375.711 112.034 375.922 111.138 376.133C110.294 376.344 109.582 376.528 109.002 376.687C108.475 376.845 108.211 376.977 108.211 377.082V391.162H129.173C129.173 391.689 128.751 392.111 127.907 392.428C127.116 392.744 126.035 393.034 124.664 393.298C123.346 393.509 121.896 393.72 120.313 393.931C118.784 394.089 117.255 394.247 115.726 394.405C114.249 394.511 112.931 394.643 111.771 394.801C110.61 394.959 109.767 395.17 109.239 395.434C109.239 395.697 109.239 396.146 109.239 396.778C109.239 397.358 109.213 397.991 109.16 398.677C109.16 399.362 109.16 400.048 109.16 400.733V401.999C109.16 402.896 109.134 403.977 109.081 405.242C109.081 406.455 109.16 407.642 109.318 408.802C109.477 409.909 109.846 410.858 110.426 411.649C111.059 412.44 112.034 412.836 113.353 412.836C115.146 412.836 116.912 412.783 118.652 412.678C120.445 412.572 122.238 412.467 124.031 412.361C125.824 412.203 127.591 412.045 129.331 411.887C131.124 411.729 132.917 411.649 134.71 411.649H136.371C136.002 412.177 135.527 412.704 134.947 413.231C134.367 413.759 133.708 414.233 132.97 414.655C132.284 415.024 131.572 415.341 130.834 415.604C130.148 415.868 129.463 416 128.777 416H111.454C109.819 416 108.475 415.525 107.42 414.576C106.418 413.574 105.627 412.309 105.047 410.779C104.467 409.25 104.071 407.562 103.86 405.717C103.702 403.818 103.597 401.946 103.544 400.101C103.544 398.202 103.597 396.462 103.702 394.88C103.808 393.298 103.86 392.059 103.86 391.162ZM139.614 391.162C139.614 389.58 139.614 388.183 139.614 386.97C139.667 385.757 139.72 384.57 139.772 383.41C139.878 382.197 140.01 380.932 140.168 379.613C140.326 378.295 140.511 376.739 140.722 374.946C142.884 374.155 144.835 373.522 146.575 373.048C148.368 372.573 150.108 372.204 151.796 371.94C153.536 371.677 155.276 371.519 157.017 371.466C158.81 371.36 160.734 371.308 162.791 371.308C163.16 371.308 163.661 371.334 164.294 371.387C164.927 371.387 165.56 371.413 166.192 371.466C166.825 371.519 167.405 371.545 167.933 371.545C168.46 371.545 168.803 371.571 168.961 371.624L171.097 372.731L169.91 373.76C169.541 373.707 168.829 373.681 167.774 373.681C166.772 373.681 165.691 373.681 164.531 373.681C163.371 373.681 162.29 373.681 161.288 373.681C160.286 373.681 159.574 373.707 159.152 373.76C158.414 373.865 157.518 374.023 156.463 374.234C155.408 374.393 154.301 374.577 153.141 374.788C152.033 374.999 150.926 375.236 149.818 375.5C148.764 375.711 147.788 375.922 146.892 376.133C146.048 376.344 145.336 376.528 144.756 376.687C144.229 376.845 143.965 376.977 143.965 377.082V391.162H164.927C164.927 391.689 164.505 392.111 163.661 392.428C162.87 392.744 161.789 393.034 160.418 393.298C159.1 393.509 157.649 393.72 156.067 393.931C154.538 394.089 153.009 394.247 151.479 394.405C150.003 394.511 148.685 394.643 147.524 394.801C146.364 394.959 145.521 395.17 144.993 395.434C144.993 395.697 144.993 396.146 144.993 396.778C144.993 397.358 144.967 397.991 144.914 398.677C144.914 399.362 144.914 400.048 144.914 400.733V401.999C144.914 402.896 144.888 403.977 144.835 405.242C144.835 406.455 144.914 407.642 145.072 408.802C145.23 409.909 145.6 410.858 146.18 411.649C146.812 412.44 147.788 412.836 149.106 412.836C150.899 412.836 152.666 412.783 154.406 412.678C156.199 412.572 157.992 412.467 159.785 412.361C161.578 412.203 163.345 412.045 165.085 411.887C166.878 411.729 168.671 411.649 170.464 411.649H172.125C171.756 412.177 171.281 412.704 170.701 413.231C170.121 413.759 169.462 414.233 168.724 414.655C168.038 415.024 167.326 415.341 166.588 415.604C165.902 415.868 165.217 416 164.531 416H147.208C145.573 416 144.229 415.525 143.174 414.576C142.172 413.574 141.381 412.309 140.801 410.779C140.221 409.25 139.825 407.562 139.614 405.717C139.456 403.818 139.351 401.946 139.298 400.101C139.298 398.202 139.351 396.462 139.456 394.88C139.562 393.298 139.614 392.059 139.614 391.162ZM200.839 412.836C198.993 410.094 197.147 407.246 195.302 404.293C193.456 401.287 191.663 398.229 189.923 395.117C188.235 391.953 186.653 388.763 185.177 385.546C183.7 382.329 182.435 379.112 181.38 375.896H180.114C180.114 376.317 180.114 377.056 180.114 378.11C180.114 379.112 180.141 380.193 180.193 381.354C180.246 382.461 180.272 383.542 180.272 384.597V386.732C180.22 387.418 180.167 388.394 180.114 389.659C180.114 390.925 180.088 392.375 180.035 394.01C179.982 395.645 179.903 397.385 179.798 399.23C179.745 401.023 179.666 402.737 179.561 404.372C179.455 406.007 179.376 407.483 179.323 408.802C179.271 410.067 179.244 411.017 179.244 411.649C179.086 411.913 178.875 412.177 178.611 412.44C178.348 412.651 178.031 412.862 177.662 413.073C177.346 413.284 177.029 413.469 176.713 413.627C176.449 413.732 176.186 413.785 175.922 413.785C175.605 413.785 175.368 413.68 175.21 413.469C175.052 413.205 174.946 412.915 174.894 412.599C174.841 412.282 174.814 411.966 174.814 411.649C174.814 411.333 174.814 411.096 174.814 410.938C174.814 407.721 174.894 404.53 175.052 401.366C175.21 398.202 175.368 395.038 175.526 391.874C175.685 388.71 175.816 385.52 175.922 382.303C176.027 379.086 176.027 375.896 175.922 372.731C176.607 371.413 177.293 370.543 177.979 370.121C178.717 369.646 179.64 369.409 180.747 369.409C180.905 369.409 181.195 369.409 181.617 369.409C182.039 369.409 182.329 369.436 182.487 369.488C184.122 373.074 185.73 376.476 187.312 379.692C188.947 382.909 190.582 386.073 192.217 389.185C193.852 392.243 195.539 395.275 197.279 398.281C199.02 401.287 200.918 404.319 202.975 407.378C203.08 407.483 203.265 407.668 203.528 407.932C203.792 408.195 204.003 408.38 204.161 408.485C204.161 407.8 204.161 406.798 204.161 405.479C204.214 404.108 204.267 402.553 204.319 400.812C204.425 399.072 204.504 397.279 204.557 395.434C204.662 393.588 204.741 391.795 204.794 390.055C204.847 388.314 204.899 386.785 204.952 385.467C205.058 384.096 205.11 383.067 205.11 382.382C205.216 381.433 205.348 380.246 205.506 378.822C205.664 377.346 205.901 375.79 206.218 374.155C206.587 372.521 207.009 370.912 207.483 369.33C208.011 367.695 208.644 366.245 209.382 364.979C210.12 363.661 210.964 362.58 211.913 361.736C212.862 360.893 213.97 360.471 215.235 360.471C215.235 361.684 215.051 362.844 214.682 363.951C214.312 365.059 213.864 366.113 213.337 367.115C212.81 368.117 212.203 369.119 211.518 370.121C210.885 371.07 210.305 372.072 209.777 373.127C209.25 374.182 208.802 375.289 208.433 376.449C208.063 377.609 207.879 378.875 207.879 380.246V414.972L207.562 415.13C207.352 415.235 207.088 415.341 206.771 415.446C206.508 415.552 206.218 415.657 205.901 415.763C205.638 415.868 205.374 415.947 205.11 416H204.952C204.794 416.053 204.688 416.079 204.636 416.079H204.319C204.267 416.079 204.214 416.053 204.161 416C204.003 415.895 203.766 415.71 203.449 415.446C203.133 415.13 202.79 414.813 202.421 414.497C202.104 414.128 201.788 413.785 201.472 413.469C201.155 413.1 200.944 412.889 200.839 412.836ZM221.484 360.866C221.643 360.972 221.827 361.156 222.038 361.42C222.302 361.684 222.539 361.974 222.75 362.29C222.961 362.606 223.146 362.923 223.304 363.239C223.515 363.556 223.62 363.819 223.62 364.03V414.972C223.62 415.13 223.462 415.341 223.146 415.604C222.882 415.868 222.645 416 222.434 416C222.275 416 222.064 415.947 221.801 415.842C221.59 415.736 221.353 415.657 221.089 415.604C220.878 415.499 220.693 415.394 220.535 415.288C220.377 415.13 220.298 415.024 220.298 414.972V363.002L221.484 360.866ZM228.445 365.138L227.259 364.03C227.628 363.608 228.129 363.16 228.762 362.686C229.447 362.211 230.054 361.947 230.581 361.895C231.056 361.789 231.899 361.71 233.112 361.657C234.378 361.552 235.696 361.42 237.067 361.262C238.438 361.104 239.73 360.998 240.943 360.945C242.209 360.893 243.105 360.866 243.633 360.866C244.477 360.866 245.742 360.84 247.43 360.787C249.17 360.734 251.147 360.708 253.362 360.708C255.577 360.655 257.897 360.629 260.323 360.629C262.749 360.576 265.069 360.55 267.284 360.55C269.499 360.497 271.477 360.471 273.217 360.471C274.957 360.418 276.249 360.392 277.093 360.392V363.002C276.565 363.002 275.722 363.028 274.562 363.081C273.401 363.134 272.109 363.213 270.686 363.318C269.262 363.371 267.759 363.45 266.177 363.556C264.647 363.608 263.171 363.661 261.747 363.714C260.323 363.767 259.058 363.846 257.95 363.951C256.843 364.004 256.025 364.03 255.498 364.03C255.182 364.03 254.654 364.109 253.916 364.268C253.23 364.373 252.466 364.479 251.622 364.584C250.831 364.637 250.066 364.742 249.328 364.9C248.643 365.059 248.168 365.138 247.904 365.138C247.904 365.401 247.878 365.929 247.825 366.72C247.825 367.511 247.799 368.328 247.746 369.172C247.746 370.016 247.746 370.833 247.746 371.624V373.206C247.746 376.37 247.878 379.481 248.142 382.54C248.405 385.546 248.669 388.578 248.933 391.637C249.249 394.643 249.539 397.675 249.803 400.733C250.066 403.792 250.198 406.877 250.198 409.988C250.198 410.252 250.198 410.595 250.198 411.017C250.198 411.438 250.172 411.86 250.119 412.282C250.119 412.651 250.119 412.994 250.119 413.311L250.04 413.785L247.904 416C247.219 415.684 246.718 415.209 246.401 414.576C246.138 413.943 245.953 413.258 245.848 412.52C245.795 411.781 245.769 411.069 245.769 410.384C245.769 409.646 245.769 409.013 245.769 408.485C245.716 407.589 245.61 406.429 245.452 405.005C245.347 403.528 245.215 401.814 245.057 399.863C244.951 397.912 244.793 395.829 244.582 393.614C244.424 391.399 244.239 389.132 244.028 386.812C243.87 384.491 243.712 382.224 243.554 380.009C243.448 377.741 243.316 375.658 243.158 373.76C243 371.809 242.842 370.095 242.684 368.618C242.578 367.142 242.499 365.981 242.446 365.138H228.445ZM279.624 365.691C279.624 365.322 279.624 365.006 279.624 364.742C279.677 364.426 279.756 364.136 279.861 363.872C279.967 363.556 280.125 363.345 280.336 363.239C280.6 363.081 280.942 363.002 281.364 363.002C281.733 363.002 282.05 363.081 282.313 363.239C282.577 363.345 282.814 363.608 283.025 364.03L289.512 378.11H291.727C291.99 377.741 292.438 377.188 293.071 376.449C293.757 375.711 294.521 374.894 295.365 373.997C296.262 373.048 297.158 372.072 298.055 371.07C299.004 370.016 299.9 369.04 300.744 368.144C301.588 367.194 302.353 366.377 303.038 365.691C303.776 364.953 304.304 364.399 304.62 364.03C304.937 363.767 305.358 363.371 305.886 362.844C306.466 362.264 307.099 361.71 307.784 361.183C308.522 360.603 309.261 360.128 309.999 359.759C310.79 359.337 311.555 359.126 312.293 359.126V361.895L294.891 380.246C293.941 381.248 293.335 382.145 293.071 382.936C292.808 383.674 292.676 384.57 292.676 385.625C292.676 388.104 292.755 390.608 292.913 393.14C293.071 395.671 293.229 398.202 293.388 400.733C293.599 403.265 293.757 405.796 293.862 408.327C294.021 410.858 294.1 413.416 294.1 416H291.727C291.463 416 291.252 415.367 291.094 414.102C290.936 412.783 290.777 411.096 290.619 409.039C290.461 406.93 290.276 404.662 290.065 402.236C289.907 399.811 289.749 397.49 289.591 395.275C289.433 393.008 289.248 391.004 289.037 389.264C288.879 387.523 288.642 386.363 288.325 385.783C288.272 385.52 288.088 385.019 287.771 384.28C287.455 383.542 287.086 382.698 286.664 381.749C286.242 380.747 285.768 379.719 285.24 378.664C284.713 377.609 284.212 376.607 283.737 375.658C283.315 374.656 282.92 373.812 282.551 373.127C282.234 372.389 282.023 371.888 281.918 371.624C281.76 371.255 281.549 370.833 281.285 370.358C281.021 369.831 280.758 369.304 280.494 368.776C280.283 368.249 280.072 367.722 279.861 367.194C279.703 366.667 279.624 366.166 279.624 365.691Z" fill="#3F3D56"/>
<path d="M259.965 238.499C262.208 315.293 217.338 343.436 161.027 345.081C159.719 345.119 158.417 345.142 157.121 345.151C154.509 345.171 151.923 345.127 149.363 345.02C98.4352 342.906 58.1232 315.873 56.0375 244.455C53.879 170.546 145.616 74.5162 152.498 67.4128C152.505 67.4126 152.505 67.4126 152.511 67.4061C152.772 67.1354 152.906 67 152.906 67C152.906 67 257.723 161.712 259.965 238.499Z" fill="#84F28F"/>
<path d="M161.084 344.84L217.812 275.99L161.2 352.247L161.318 359.994C157.177 360.02 153.076 359.963 149.015 359.825L151.828 260.239L151.751 259.471L151.855 259.322L152.124 249.912L90 176.299L152.051 242.869L152.271 244.858L154.396 169.617L100.738 93.2975L154.549 156.399L153.988 0.518777L153.989 0L154.007 0.510245L157.569 123.365L206.473 73.4613L157.729 133.949L158.796 201.25L203.798 135.566L158.962 211.145L159.556 248.568L225 157.071L159.755 261.623L161.084 344.84Z" fill="#3F3D56"/>
</svg>
